<svg id="Layer_1" data-name="Layer 1" xmlns="http://www.w3.org/2000/svg" viewBox="0 0 56.83 104.71"><defs><style>.cls-1{fill:none;stroke:#a6a6a6;stroke-miterlimit:10;stroke-width:12px;}.cls-2{fill:#fff;}</style></defs><title>facebook icon (white)</title><path class="cls-1" d="M-46.84,295.59" transform="translate(-2.83 -3.23)"/><path class="cls-2" d="M57.23,3.23l-15.15.13A23.76,23.76,0,0,0,18.53,27.12v14H4.59a1.76,1.76,0,0,0-1.76,1.76V60.15A1.75,1.75,0,0,0,4.59,61.9H18.53v44a2.08,2.08,0,0,0,2.08,2.08H38.37a2.08,2.08,0,0,0,2.08-2.08v-44H56.69a1.75,1.75,0,0,0,1.76-1.75V42.88a1.76,1.76,0,0,0-1.76-1.76H40.45V29.69a6.28,6.28,0,0,1,6.28-6.28H57.25A2.42,2.42,0,0,0,59.67,21V5.64A2.41,2.41,0,0,0,57.23,3.23Z" transform="translate(-2.83 -3.23)"/></svg>