<svg id="Layer_1" data-name="Layer 1" xmlns="http://www.w3.org/2000/svg" viewBox="0 0 57.67 106.25"><defs><style>.cls-1{fill:none;stroke:#a6a6a6;stroke-miterlimit:10;stroke-width:12px;}.cls-2{fill:#469991;}</style></defs><title>facebook icon</title><path class="cls-1" d="M-46.84,295.59" transform="translate(-2.42 -2.46)"/><path class="cls-2" d="M57.61,2.46l-15.37.13A24.12,24.12,0,0,0,18.34,26.7V40.91H4.2a1.78,1.78,0,0,0-1.78,1.78V60.22A1.78,1.78,0,0,0,4.2,62H18.34v44.6a2.12,2.12,0,0,0,2.11,2.11h18a2.12,2.12,0,0,0,2.11-2.11V62H57.07a1.78,1.78,0,0,0,1.78-1.78V42.69a1.78,1.78,0,0,0-1.78-1.78H40.59V29.31A6.37,6.37,0,0,1,47,22.94H57.63a2.45,2.45,0,0,0,2.45-2.45V4.91A2.45,2.45,0,0,0,57.61,2.46Z" transform="translate(-2.42 -2.46)"/></svg>