<svg id="Layer_1" data-name="Layer 1" xmlns="http://www.w3.org/2000/svg" viewBox="0 0 182 208.1"><defs><style>.cls-1{fill:none;stroke:#a6a6a6;stroke-miterlimit:10;stroke-width:12px;}.cls-2{fill:#469991;}</style></defs><title>Zoom button</title><path class="cls-1" d="M14.83,318.26" transform="translate(-4.67 -2.95)"/><polygon class="cls-2" points="130.39 0 130.39 5.94 176.06 5.94 176.06 52.35 182 52.35 182 0 130.39 0"/><polygon class="cls-2" points="0.06 52.35 6 52.35 6 5.94 51.67 5.94 51.67 0 0.06 0 0.06 52.35"/><polygon class="cls-2" points="176 202.16 130.33 202.16 130.33 208.1 181.94 208.1 181.94 155.75 176 155.75 176 202.16"/><polygon class="cls-2" points="5.94 155.75 0 155.75 0 208.1 51.61 208.1 51.61 202.16 5.94 202.16 5.94 155.75"/></svg>