<svg id="Layer_1" data-name="Layer 1" xmlns="http://www.w3.org/2000/svg" viewBox="0 0 154.85 154.85"><defs><style>.cls-1{fill:none;stroke:#a6a6a6;stroke-miterlimit:10;stroke-width:12px;}.cls-2{fill:#469991;}</style></defs><title>instagram icon</title><path class="cls-1" d="M6.5,295.59" transform="translate(-7.58 -7.24)"/><path class="cls-2" d="M85,46.37a39.07,39.07,0,1,0,39.06,39.07A39.11,39.11,0,0,0,85,46.37Zm0,65.39a26.33,26.33,0,1,1,26.33-26.32A26.36,26.36,0,0,1,85,111.76Z" transform="translate(-7.58 -7.24)"/><circle class="cls-2" cx="118.84" cy="36.89" r="9.63"/><path class="cls-2" d="M115.61,7.24H54.39A46.87,46.87,0,0,0,7.58,54.06v61.22a46.86,46.86,0,0,0,46.81,46.81h61.22a46.86,46.86,0,0,0,46.81-46.81V54.06A46.87,46.87,0,0,0,115.61,7.24Zm33.64,108a33.68,33.68,0,0,1-33.64,33.64H54.39a33.68,33.68,0,0,1-33.64-33.64V54.06A33.68,33.68,0,0,1,54.39,20.42h61.22a33.68,33.68,0,0,1,33.64,33.64Z" transform="translate(-7.58 -7.24)"/></svg>