<svg id="Layer_1" data-name="Layer 1" xmlns="http://www.w3.org/2000/svg" viewBox="0 0 152.83 152.83"><defs><style>.cls-1{fill:none;stroke:#a6a6a6;stroke-miterlimit:10;stroke-width:12px;}.cls-2{fill:#fff;}</style></defs><title>Instagram icon (white)</title><path class="cls-1" d="M6.5,295.59" transform="translate(-8.59 -8.42)"/><path class="cls-2" d="M85,47a38.55,38.55,0,1,0,38.55,38.55A38.59,38.59,0,0,0,85,47Zm0,64.53a26,26,0,1,1,26-26A26,26,0,0,1,85,111.57Z" transform="translate(-8.59 -8.42)"/><circle class="cls-2" cx="117.29" cy="36.41" r="9.5"/><path class="cls-2" d="M115.21,8.42H54.79a46.25,46.25,0,0,0-46.2,46.2V115a46.25,46.25,0,0,0,46.2,46.21h60.42A46.25,46.25,0,0,0,161.41,115V54.62A46.25,46.25,0,0,0,115.21,8.42ZM148.41,115a33.23,33.23,0,0,1-33.2,33.2H54.79A33.23,33.23,0,0,1,21.59,115V54.62a33.24,33.24,0,0,1,33.2-33.2h60.42a33.24,33.24,0,0,1,33.2,33.2Z" transform="translate(-8.59 -8.42)"/></svg>