<svg xmlns="http://www.w3.org/2000/svg" viewBox="0 0 312.22 332.67"><defs><style>.cls-1{fill:#c0dcd9;}.cls-2{fill:#fff;}.cls-3{fill:#b3d6d2;}.cls-4{fill:#88bdb8;}.cls-5{fill:#52a098;}.cls-6{fill:#0b1a18;}.cls-7{fill:#3e8c84;}.cls-8{fill:#1a3b38;}.cls-9{fill:#70afa9;}.cls-10{fill:#2f6864;}</style></defs><title>Loading_icon</title><g id="Layer_1" data-name="Layer 1"><path class="cls-1" d="M187.8,319.79c0,5.73,0,11.46,0,17.2,0,5.47-3.6,9.38-8.46,9.34-5.11,0-8.67-3.86-8.68-9.39q0-17.2,0-34.4c0-5.32,3.51-9.15,8.33-9.21,5.11-.06,8.74,3.74,8.77,9.26,0,5.73,0,11.46,0,17.2Z" transform="translate(-33.16 -13.67)"/><path class="cls-2" d="M108.62,329.66c-6.46.27-11.08-6.47-8.15-12.22,5.49-10.81,11.15-21.53,16.86-32.23a8.59,8.59,0,0,1,15.23,8c-5.41,10.55-10.91,21.05-16.41,31.56C114.57,327.75,112.16,329.6,108.62,329.66Z" transform="translate(-33.16 -13.67)"/><path class="cls-3" d="M260,319.56A8.52,8.52,0,0,1,244,323.88c-3.31-5.59-6.5-11.25-9.75-16.88-2.69-4.67-5.46-9.29-8-14-2.07-3.8-1.32-7.54,1.81-10.46a8.22,8.22,0,0,1,9.95-1.06,8.78,8.78,0,0,1,3.21,3.25q8.81,15.19,17.58,30.42A7.49,7.49,0,0,1,260,319.56Z" transform="translate(-33.16 -13.67)"/><path class="cls-4" d="M271.22,247.36c.07-7.25,6.66-11.24,12.46-8.08,7.73,4.22,15.28,8.75,22.92,13.14,2.51,1.44,5,2.85,7.59,4.27,4.76,2.65,6.27,7.61,3.71,12.2a8.54,8.54,0,0,1-11.85,2.85q-15.3-8.87-30.59-17.79A7.91,7.91,0,0,1,271.22,247.36Z" transform="translate(-33.16 -13.67)"/><path class="cls-5" d="M327.21,105.89a8,8,0,0,1-4.3,7.66q-14.84,8.65-29.69,17.27c-4.54,2.62-8.92,2.3-11.78-.71-4.11-4.31-3.21-10.81,2.13-14,7.71-4.59,15.53-9,23.3-13.46,2.52-1.45,5-3,7.56-4.3C320.55,95.24,327.28,99.42,327.21,105.89Z" transform="translate(-33.16 -13.67)"/><path class="cls-6" d="M81.5,119.13a8,8,0,0,0-4.31-7.67Q62.36,102.81,47.5,94.19c-4.54-2.62-8.91-2.29-11.78.72-4.1,4.3-3.2,10.8,2.14,14,7.7,4.59,15.52,9,23.3,13.47,2.51,1.44,5,3,7.56,4.3C74.84,129.77,81.56,125.6,81.5,119.13Z" transform="translate(-33.16 -13.67)"/><path class="cls-7" d="M266.33,43.38c.23,1.78-.76,3.43-1.69,5.06-5.45,9.56-11,19.1-16.41,28.67-2.85,5-7.51,6.76-12.3,4.63-4-1.8-6.17-7.15-4.09-11,3.28-6.09,6.84-12,10.28-18q4-6.89,7.89-13.76a8.82,8.82,0,0,1,9.84-4.27A8.51,8.51,0,0,1,266.33,43.38Z" transform="translate(-33.16 -13.67)"/><path class="cls-8" d="M122.19,76.13c.23-1.77-.76-3.42-1.68-5-5.46-9.57-11-19.11-16.42-28.67-2.84-5-7.5-6.77-12.29-4.63-4,1.79-6.18,7.14-4.09,11,3.27,6.08,6.84,12,10.28,18q3.95,6.89,7.89,13.76a8.81,8.81,0,0,0,9.84,4.27A8.5,8.5,0,0,0,122.19,76.13Z" transform="translate(-33.16 -13.67)"/><path class="cls-9" d="M318.84,198.29c-5.83,0-11.65,0-17.47,0-5.58,0-9.31-3.56-9.28-8.72s3.87-8.67,9.39-8.68h34.66c5.31,0,9.23,3.66,9.24,8.57s-3.83,8.73-9.08,8.79c-5.82.07-11.64,0-17.46,0Z" transform="translate(-33.16 -13.67)"/><path class="cls-10" d="M187.16,40.19c0,6,0,12,0,18,0,3.65-1.65,6.5-5,7.94A8.46,8.46,0,0,1,173,64.6c-2.47-2-2.86-4.83-2.89-7.63-.1-11.54-.08-23.08,0-34.61,0-4.66,4-9,8.06-8.68,5.5.45,9,3.61,9,8.82C187.15,28.4,187.16,34.3,187.16,40.19Z" transform="translate(-33.16 -13.67)"/></g></svg>