<svg id="Layer_1" data-name="Layer 1" xmlns="http://www.w3.org/2000/svg" viewBox="0 0 428.14 394.7"><defs><style>.cls-1{fill:#469991;}</style></defs><title>Location Icon</title><g id="_1" data-name="1"><path class="cls-1" d="M404.24,397H30.43A27.14,27.14,0,0,1,4.71,361.22L51.17,223A27.12,27.12,0,0,1,76.9,204.5h83.16a7,7,0,0,1,0,14H76.9a13.14,13.14,0,0,0-12.46,8.95L18,365.68A13.14,13.14,0,0,0,30.43,383H404.24a13.14,13.14,0,0,0,12.45-17.32L370.23,227.45a13.14,13.14,0,0,0-12.45-8.95H274.06a7,7,0,0,1,0-14h83.72A27.12,27.12,0,0,1,383.5,223L430,361.22A27.14,27.14,0,0,1,404.24,397Z" transform="translate(-3.27 -2.3)"/><path class="cls-1" d="M217.34,303.38a7,7,0,0,1-5.65-2.86c-4.07-5.56-99.84-136.7-99.84-192.74a105.49,105.49,0,0,1,211,0c0,56-95.76,187.18-99.84,192.74A7,7,0,0,1,217.34,303.38Zm0-287.08a91.59,91.59,0,0,0-91.49,91.48c0,44.16,70.74,147.3,91.49,176.58,20.74-29.28,91.48-132.42,91.48-176.58A91.59,91.59,0,0,0,217.34,16.3Z" transform="translate(-3.27 -2.3)"/><path class="cls-1" d="M217.34,169a61.18,61.18,0,1,1,61.17-61.18A61.26,61.26,0,0,1,217.34,169Zm0-108.35a47.18,47.18,0,1,0,47.17,47.17A47.23,47.23,0,0,0,217.34,60.61Z" transform="translate(-3.27 -2.3)"/></g></svg>