<svg id="Layer_1" data-name="Layer 1" xmlns="http://www.w3.org/2000/svg" viewBox="0 0 306.8 98"><defs><style>.cls-1{fill:#fff;}</style></defs><title>Moonji Logo white</title><polygon class="cls-1" points="57.9 42.9 74.6 30.8 74.6 55.3 82.1 60.8 82.1 15.8 57.8 34.3 33.4 15.8 33.4 24.9 57.9 42.9"/><path class="cls-1" d="M141.1,192.8a23.6,23.6,0,1,1,23.6-23.6A23.64,23.64,0,0,1,141.1,192.8Zm0-40.2c-8.9,0-15.8,7.3-15.8,16.5s7,16.5,15.9,16.5,15.8-7.3,15.8-16.5S149.8,152.6,141.1,152.6Z" transform="translate(-26.6 -131)"/><polygon class="cls-1" points="202.6 60.9 202.6 15.9 236.8 44.6 236.8 15.4 244.3 15.4 244.3 60.4 210.1 31.9 210.1 60.9 202.6 60.9"/><path class="cls-1" d="M295,192.8c-9.5,0-15.9-4.7-18.4-13.4l6.8-2.1c1.8,5.5,5.8,8.3,11.6,8.3,8.3,0,12.1-7.2,12.1-13.9V152.9h-8.5v-6.5h16v25.3C314.7,181.4,309.5,192.8,295,192.8Z" transform="translate(-26.6 -131)"/><rect class="cls-1" x="299.3" y="15.4" width="7.5" height="45.6"/><polygon class="cls-1" points="104.4 78.1 0 1.2 0.8 0 105.2 76.9 104.4 78.1"/><path class="cls-1" d="M196,192.8a23.6,23.6,0,1,1,23.6-23.6A23.64,23.64,0,0,1,196,192.8Zm-.1-40.2c-8.9,0-15.8,7.3-15.8,16.5s7,16.5,15.9,16.5,15.8-7.3,15.8-16.5S204.7,152.6,195.9,152.6Z" transform="translate(-26.6 -131)"/><path class="cls-1" d="M148,221.4h-5.3v7.3h-1.5V209.1h7.1c4.3,0,7.3,2.2,7.3,6v.1C155.6,219.2,152.1,221.4,148,221.4Zm6.2-6.2c0-3.1-2.4-4.7-5.9-4.7h-5.5v9.6h5.4c3.5-.1,6-2,6-4.9Z" transform="translate(-26.6 -131)"/><path class="cls-1" d="M174,228.7l-6.2-8.1h-6.4v8.1h-1.5V209.1h8.2c4.2,0,7,2.3,7,5.6v.1c0,3.3-2.4,5.1-5.7,5.6l6.5,8.4H174Zm-.3-14c0-2.6-2.1-4.3-5.6-4.3h-6.7v8.8H168c3.3,0,5.7-1.6,5.7-4.5Z" transform="translate(-26.6 -131)"/><path class="cls-1" d="M189.1,229c-5.9,0-9.8-4.7-9.8-10.1v-.1a9.84,9.84,0,0,1,9.9-10.1c5.9,0,9.8,4.7,9.8,10.1v.1A9.9,9.9,0,0,1,189.1,229Zm8.4-10.1a8.48,8.48,0,0,0-8.4-8.8,8.37,8.37,0,0,0-8.3,8.7v.1a8.48,8.48,0,0,0,8.4,8.8c4.8,0,8.3-3.9,8.3-8.8Z" transform="translate(-26.6 -131)"/><path class="cls-1" d="M210.4,228.7h-6.5V209.1h6.5c6.1,0,10.4,4.2,10.4,9.7v.1C220.8,224.4,216.6,228.7,210.4,228.7Zm8.9-9.8c0-4.6-3.4-8.4-8.9-8.4h-5.1v16.9h5.1c5.5-.1,8.9-3.8,8.9-8.5Z" transform="translate(-26.6 -131)"/><path class="cls-1" d="M233.5,229c-4.7,0-8-3-8-8.4V209.2H227v11.3c0,4.6,2.5,7.3,6.6,7.3s6.5-2.4,6.5-7.1V209.3h1.5v11.3C241.5,226,238.2,229,233.5,229Z" transform="translate(-26.6 -131)"/><path class="cls-1" d="M255.9,229c-5.6,0-9.7-4.4-9.7-10.1v-.1a9.82,9.82,0,0,1,9.8-10.1,10.44,10.44,0,0,1,7.6,3.1l-1,1.1A9.24,9.24,0,0,0,256,210c-4.7,0-8.2,3.8-8.2,8.7v.1c0,4.9,3.6,8.8,8.3,8.8a8.94,8.94,0,0,0,6.7-3l1,1C261.6,227.6,259.3,229,255.9,229Z" transform="translate(-26.6 -131)"/><path class="cls-1" d="M274.5,210.4v18.2H273V210.4h-6.8v-1.3h15.1v1.3Z" transform="translate(-26.6 -131)"/><path class="cls-1" d="M285.9,228.7V209.1h1.5v19.6Z" transform="translate(-26.6 -131)"/><path class="cls-1" d="M302.3,229c-5.9,0-9.8-4.7-9.8-10.1v-.1a9.84,9.84,0,0,1,9.9-10.1c5.9,0,9.8,4.7,9.8,10.1v.1A9.84,9.84,0,0,1,302.3,229Zm8.4-10.1a8.48,8.48,0,0,0-8.4-8.8,8.37,8.37,0,0,0-8.3,8.7v.1a8.48,8.48,0,0,0,8.4,8.8c4.8,0,8.3-3.9,8.3-8.8Z" transform="translate(-26.6 -131)"/><path class="cls-1" d="M332.3,228.7l-13.8-17.4v17.4h-1.4V209.1h1.4l13.5,17v-17h1.4v19.6Z" transform="translate(-26.6 -131)"/></svg>