<svg id="Layer_1" data-name="Layer 1" xmlns="http://www.w3.org/2000/svg" viewBox="0 0 373.49 386.29"><defs><style>.cls-1{fill:#469991;}</style></defs><title>Phone icon</title><g id="_9" data-name="9"><path class="cls-1" d="M309.6,211.52h0a7,7,0,0,1-7-7A109,109,0,0,0,195,95.59a7,7,0,0,1,.09-14h.1A123,123,0,0,1,304.3,151a121.89,121.89,0,0,1,12.3,53.56A7,7,0,0,1,309.6,211.52Z" transform="translate(-9.85 -13.1)"/><path class="cls-1" d="M376.34,211.52h0a7,7,0,0,1-7-7A175.78,175.78,0,0,0,195,28.85a7,7,0,0,1,.06-14h.06A189.65,189.65,0,0,1,364.36,121.9a187.79,187.79,0,0,1,19,82.63A7,7,0,0,1,376.34,211.52Z" transform="translate(-9.85 -13.1)"/><path class="cls-1" d="M300.88,399.39c-27.8,0-60.42-12.37-96.94-36.76-37.78-25.23-70.59-57.2-91.46-79.57C72.78,240.51,41.72,195.89,25,157.42c-9.93-22.87-15-43.91-15.17-62.51-.16-21.16,6.07-39.32,18.51-54l13.84-17a29.28,29.28,0,0,1,44.13-1.5L136,75.66a28.34,28.34,0,0,1,1.46,36.75l-22.66,30.4c2.16,6.45,12.51,28.66,61.26,80.92,48.47,52,70.11,64,76.53,66.7L284.46,270A28,28,0,0,1,300.4,265,28.33,28.33,0,0,1,321,274l49.68,53.25a29.29,29.29,0,0,1-4.56,43.92L348.28,383.7C334.89,394.11,319,399.39,300.88,399.39ZM64.92,27.1a15.25,15.25,0,0,0-11.86,5.64L39.17,49.82l-.1.12c-43.91,51.67,14.41,149.37,83.65,223.57,65.35,70.06,132,111.88,178.16,111.88,14.93,0,28-4.32,38.92-12.83l.28-.21,18-12.67a15.27,15.27,0,0,0,2.38-22.92l-49.68-53.25A14.23,14.23,0,0,0,300.4,279a14,14,0,0,0-8.07,2.53l-.21.13L257.43,304a7.09,7.09,0,0,1-4.44,1.08c-3.69-.34-25.26-5.42-87.15-71.77-62.39-66.87-65.56-88.43-65.56-92.08a6.93,6.93,0,0,1,1.39-4.18L126.32,104l.15-.2a14.26,14.26,0,0,0-.7-18.54L76.09,32A15.13,15.13,0,0,0,64.92,27.1Z" transform="translate(-9.85 -13.1)"/></g></svg>