<svg id="Layer_1" data-name="Layer 1" xmlns="http://www.w3.org/2000/svg" viewBox="0 0 162.33 103.38"><defs><style>.cls-1{fill:none;stroke:#a6a6a6;stroke-miterlimit:10;stroke-width:12px;}.cls-2{fill:#fff;}</style></defs><title>youtube icon (white)</title><path class="cls-1" d="M6.5,295.59" transform="translate(-3.84 -3.9)"/><polygon class="cls-2" points="55.79 81.61 107.29 53.18 56.68 22.88 55.79 81.61"/><path class="cls-2" d="M140.18,3.9H29.82a26,26,0,0,0-26,26v51.4a26,26,0,0,0,26,26H140.18a26,26,0,0,0,26-26V29.88A26,26,0,0,0,140.18,3.9Zm19.46,77.38a19.48,19.48,0,0,1-19.46,19.47H29.82A19.48,19.48,0,0,1,10.36,81.28V29.88A19.48,19.48,0,0,1,29.82,10.42H140.18a19.48,19.48,0,0,1,19.46,19.46Z" transform="translate(-3.84 -3.9)"/></svg>