<svg id="Layer_1" data-name="Layer 1" xmlns="http://www.w3.org/2000/svg" viewBox="0 0 253.64 181.43"><defs><style>.cls-1{fill:none;stroke:#a6a6a6;stroke-miterlimit:10;stroke-width:12px;}.cls-2{fill:#479991;}</style></defs><title>Sound icon</title><path class="cls-1" d="M62.16,318.26" transform="translate(-16.18 -16.29)"/><path class="cls-2" d="M183.19,192.88l-.72-.72-.25-.61v-5l.25-.61.72-.72.61-.25a77.85,77.85,0,0,0,0-155.7l-.61-.26-.72-.72-.25-.61v-5l.25-.61.72-.72.61-.25a86,86,0,1,1,0,172Z" transform="translate(-16.18 -16.29)"/><path class="cls-2" d="M183.08,191.55v-5l.72-.72a78.72,78.72,0,1,0,0-157.43l-.72-.72v-5l.72-.72a85.16,85.16,0,1,1,0,170.31Z" transform="translate(-16.18 -16.29)"/><path class="cls-2" d="M182.94,191.55v-5l.86-.86a78.57,78.57,0,0,0,0-157.14l-.86-.87v-5l.86-.86a85.3,85.3,0,1,1,0,170.59Z" transform="translate(-16.18 -16.29)"/><path class="cls-2" d="M183.8,22.68v5a79.44,79.44,0,1,1,0,158.87v5a84.44,84.44,0,1,0,0-168.87Z" transform="translate(-16.18 -16.29)"/><path class="cls-2" d="M182.46,148.5l-.72-.72-.25-.61v-3l.25-.61.72-.72.61-.26a35.47,35.47,0,1,0,0-70.93l-.61-.25-.72-.72-.25-.61v-3l.25-.62.72-.72.61-.25a41.64,41.64,0,1,1,0,83.27Z" transform="translate(-16.18 -16.29)"/><path class="cls-2" d="M182.35,147.17v-3l.72-.72a36.33,36.33,0,1,0,0-72.66l-.72-.72v-3l.72-.72a40.77,40.77,0,1,1,0,81.54Z" transform="translate(-16.18 -16.29)"/><path class="cls-2" d="M182.21,147.17v-3l.86-.87a36.19,36.19,0,1,0,0-72.37l-.86-.86v-3l.86-.87a40.92,40.92,0,1,1,0,81.83Z" transform="translate(-16.18 -16.29)"/><path class="cls-2" d="M223.12,107.12a40.09,40.09,0,0,0-40.05-40.05v3a37,37,0,1,1,0,74.1v3A40.09,40.09,0,0,0,223.12,107.12Z" transform="translate(-16.18 -16.29)"/><path class="cls-2" d="M166.47,197.69,93,151.2H17.76l-.61-.25-.72-.72-.25-.61V70.13l.25-.61.72-.72.61-.25h73.5l75.15-52.21.9-.05,1.13.59.46.76V93.28a14,14,0,0,1,0,27.67v75.4l-.45.75-1.1.61ZM94.92,143l.24,0,.38.11.23.1,65,41.11V30.23l-66.5,46.2-.24.12-.41.13-.26,0h-69V143Z" transform="translate(-16.18 -16.29)"/><path class="cls-2" d="M93.26,150.34H17.76l-.72-.72V70.13l.72-.72H91.53l75.38-52.36,1.13.59V94.05a13.12,13.12,0,0,1,0,26.14v76.16l-1.11.61Zm1.66-6.44.38.11,66.3,42V28.58L93.73,75.72l-.41.13H23.48V143.9Z" transform="translate(-16.18 -16.29)"/></svg>