<svg id="Layer_1" data-name="Layer 1" xmlns="http://www.w3.org/2000/svg" viewBox="0 0 263.02 153.9"><defs><style>.cls-1{fill:none;stroke:#a6a6a6;stroke-miterlimit:10;stroke-width:12px;}.cls-2{fill:#469991;}</style></defs><title>Zoon In</title><path class="cls-1" d="M62.16,302.26" transform="translate(-11.49 -16.18)"/><polygon class="cls-2" points="255.78 146.65 188.07 146.65 188.07 153.9 263.02 153.9 263.02 79.08 255.78 79.08 255.78 146.65"/><polygon class="cls-2" points="188.07 0 188.07 7.25 255.78 7.25 255.78 74.82 263.02 74.82 263.02 0 188.07 0"/><polygon class="cls-2" points="7.25 79.08 0 79.08 0 153.9 74.95 153.9 74.95 146.65 7.25 146.65 7.25 79.08"/><polygon class="cls-2" points="0 74.82 7.25 74.82 7.25 7.25 74.95 7.25 74.95 0 0 0 0 74.82"/></svg>